HIERARCHY
ROOT RootJoint
{
    OFFSET   0.000000   0.000000   0.000000
    CHANNELS 6 Xposition Yposition Zposition Xrotation Yrotation Zrotation
    JOINT lHip
    {
        OFFSET   0.100000  -0.051395   0.000000
        CHANNELS 3 Xrotation Yrotation Zrotation
        JOINT lKnee
        {
            OFFSET   0.000000  -0.410000   0.000000
            CHANNELS 3 Xrotation Yrotation Zrotation
            JOINT lAnkle
            {
                OFFSET   0.000000  -0.390000   0.000000
                CHANNELS 3 Xrotation Yrotation Zrotation
                JOINT lToeJoint
                {
                    OFFSET   0.000000  -0.050000   0.130000
                    CHANNELS 3 Xrotation Yrotation Zrotation
                    End Site
                    {
                        OFFSET   0.010000   0.002000   0.060000
                    }
                }
            }
        }
    }
    JOINT rHip
    {
        OFFSET  -0.100000  -0.051395   0.000000
        CHANNELS 3 Xrotation Yrotation Zrotation
        JOINT rKnee
        {
            OFFSET   0.000000  -0.410000   0.000000
            CHANNELS 3 Xrotation Yrotation Zrotation
            JOINT rAnkle
            {
                OFFSET   0.000000  -0.390000   0.000000
                CHANNELS 3 Xrotation Yrotation Zrotation
                JOINT rToeJoint
                {
                    OFFSET   0.000000  -0.050000   0.130000
                    CHANNELS 3 Xrotation Yrotation Zrotation
                    End Site
                    {
                        OFFSET  -0.010000   0.002000   0.060000
                    }
                }
            }
        }
    }
    JOINT pelvis_lowerback
    {
        OFFSET   0.000000   0.093605   0.000000
        CHANNELS 3 Xrotation Yrotation Zrotation
        JOINT lowerback_torso
        {
            OFFSET   0.000000   0.100000   0.000000
            CHANNELS 3 Xrotation Yrotation Zrotation
            JOINT torso_head
            {
                OFFSET   0.000000   0.282350   0.000000
                CHANNELS 3 Xrotation Yrotation Zrotation
                End Site
                {
                    OFFSET   0.000000   0.192650   0.000000
                }
            }
            JOINT lTorso_Clavicle
            {
                OFFSET   0.001000   0.157500   0.000000
                CHANNELS 3 Xrotation Yrotation Zrotation
                JOINT lShoulder
                {
                    OFFSET   0.117647   0.000000   0.000000
                    CHANNELS 3 Xrotation Yrotation Zrotation
                    JOINT lElbow
                    {
                        OFFSET   0.245000   0.000000   0.000000
                        CHANNELS 3 Xrotation Yrotation Zrotation
                        JOINT lWrist
                        {
                            OFFSET   0.240000   0.000000   0.000000
                            CHANNELS 3 Xrotation Yrotation Zrotation
                            End Site
                            {
                                OFFSET   0.116353  -0.002500   0.000000
                            }
                        }
                    }
                }
            }
            JOINT rTorso_Clavicle
            {
                OFFSET  -0.001000   0.157500   0.000000
                CHANNELS 3 Xrotation Yrotation Zrotation
                JOINT rShoulder
                {
                    OFFSET  -0.117647   0.000000   0.000000
                    CHANNELS 3 Xrotation Yrotation Zrotation
                    JOINT rElbow
                    {
                        OFFSET  -0.245000   0.000000   0.000000
                        CHANNELS 3 Xrotation Yrotation Zrotation
                        JOINT rWrist
                        {
                            OFFSET  -0.240000   0.000000   0.000000
                            CHANNELS 3 Xrotation Yrotation Zrotation
                            End Site
                            {
                                OFFSET  -0.116353  -0.002500   0.000000
                            }
                        }
                    }
                }
            }
        }
    }
}
MOTION
Frames: 11
Frame Time:   0.010000
  1.000000   1.000000   1.000000  -3.667214   0.071202  -0.516139 -28.822639  26.210387  -2.549170  50.463572  -0.888789   8.598688  16.583325  -1.873599   0.594625  -7.536308  -1.866172   7.488263 -29.111324 -13.831483  -8.880229  42.664244   2.690883  -4.873271   1.014257   5.001950  18.734145  -3.124722   2.748983  -6.428633  -3.130608  -7.719748 -10.946661   6.131654   5.872614  -3.188769  10.184384 -17.571208  -5.539498  -1.062193  -4.969777 -22.784178  16.141195 -33.687583 -49.957714  15.318197 -44.335591  38.847807  -4.304394  19.565085  -8.054897  -4.338653  -3.407814  21.433959  17.512876  39.709919  56.993829   1.627565  43.496831  -8.618749   7.261560   5.566666 -15.077738
  1.000000   1.000000   1.000000 -16.082266 -34.262577  -9.790800 -36.825702  25.036498  -6.275666  53.015362   4.817276  10.551361  -0.585243   6.560540   0.429651  -7.549828  -4.597919  -1.342568 -12.526493 -23.868423   4.646889  42.749226   4.518374 -21.818329   0.531400  12.047766   0.857046   2.569158  -4.136164   5.007687  12.982729  -1.382973  13.053516  23.022089  13.683032   3.585666  10.435257 -10.364237  -4.584528   0.661708   2.050650 -34.103438  32.344918 -31.420544 -53.968141 -16.339208 -47.708010  -3.998161  11.522379  -7.442642 -10.282718  -2.548074   0.473882  23.735518   5.062166  34.651135  61.523609   5.961966  46.016182  -9.732116   0.796518   6.908390  -2.839230
  1.000000   1.000000   1.000000 -21.416165 -18.633233 -24.604173 -22.943741  20.925078   9.549567  54.313410   3.100605  -2.186844 -14.786049   0.329998  -4.739401 -12.920040  -3.146250   1.338330 -14.387835 -17.033856   6.533930  42.136480   3.743471 -13.644475   7.967306 -16.381972   1.206382   4.511589   5.729708   6.248448   5.931686  -2.333571  11.905642   9.130959  -2.179875   2.264181  14.876288  -4.310373 -10.626735 -12.032656  -3.656457 -29.087849  15.200814 -36.376365 -57.976626  -3.959932 -45.301453   0.780239  19.915328  16.060509 -18.063319  -0.298484   2.982610  11.831175  17.729264  32.193252  61.732036   0.740150  46.037165 -19.915613   8.699779   1.384448  -9.181483
  1.000000   1.000000   1.000000  22.183934 -66.939374  60.850756 -43.486547  15.980678   7.230572  40.914479  16.980069  -4.433504 -12.075112   7.360098 -19.456435  -5.087509 -13.118894  13.615668 -39.609682 -23.797826   4.303013  35.684303   9.300865 -24.473021   1.039845 -11.709651  -2.996705  -4.598295  -0.666504  -4.530834   8.993546   3.168866 -12.706865  12.093448  -1.946451   2.709030  23.129083   3.464756 -15.355511  -0.198842   1.975729 -23.323442   7.644739 -30.673719 -63.797206   3.361913 -37.662345   8.357835  12.338354  -4.356158  -1.155635   5.886024   9.844109  13.171789  17.505765  43.252166  49.709459   0.690210  39.812332   3.057658  18.386020   4.260841 -18.294976
  1.000000   1.000000   1.000000 102.506324 -68.626312  85.542341 -21.786240  16.816556  -4.410986  44.132100  -1.677123  11.303924  -4.106619  -2.188454  -6.286633   1.504907   2.745376  -5.421163 -17.869814 -20.489265 -16.312198  44.283561   3.755976  -5.556330   0.669765 -20.531424  -7.095275  16.329032  -1.374272  -8.050934   6.954487  -4.391761  -5.077885  23.479976  -4.145013   1.422454   7.902338   4.361419   2.463439  -8.257502   6.066537 -26.047906  21.679851 -34.487187 -50.750006  -3.061087 -36.510572  12.482787  11.063331  11.703169   5.188704  -4.818129   7.031332  33.153647  20.994919  27.659542  58.466647   6.481786  43.877522 -19.548115   7.848947  -1.467441 -14.443244
  1.000000   1.000000   1.000000  39.520559 -39.515427  21.368600 -28.654792  24.281384  -1.342263  52.007053   3.825391   1.886447   7.344673  11.149597 -12.409897   7.201399  11.616722  -0.813723 -27.961926  -3.823683  -2.774003  58.407499   2.764139   1.135338   9.355638 -14.725794   8.667183  -8.828765   0.014939   3.220098  19.363638   3.277016   0.505117  -0.064240  -1.504963  11.037688  18.175413   2.245491 -16.981088   3.688462  -6.956451 -26.394739  26.623285 -27.878624 -55.477399 -10.322527 -43.534369   4.825140  -0.314394   8.249050  -4.882579   2.846726 -10.137991  38.076117  28.505250  28.954724  55.415276  -2.440255  43.433198  -8.268958  28.057939  -2.627464 -16.819617
  1.000000   1.000000   1.000000  19.485869 -74.492992   9.608278 -16.386002  26.441548  -7.241393  51.699006  -0.765877  21.182734  -9.205070  -2.827570   0.339351  10.599038   6.212127  -0.850024  -6.763933 -23.324493  -2.949886  41.054129   3.080821 -16.668825   1.395424   2.089753  -5.285801 -10.834167  -3.369123 -13.071468   6.107718  -5.004506   4.146647  20.755473  -4.087492  -1.506272  13.347838  -1.359894   2.849580  -0.853895   1.589996 -32.486756  14.020956 -41.236578 -57.523987  -1.854551 -52.095520  -3.086679  17.900975   3.148477 -18.725611  -7.759742   9.587139  34.498346  19.228946  35.702165  55.556092  20.936065  49.557691 -26.098631  14.281323 -11.668566 -15.244717
  1.000000   1.000000   1.000000  55.832024 -24.715233  67.705634 -32.779969  20.559238  -3.117965  46.867323   2.781611   9.470056  12.533232   2.475290  -5.697539   8.688453  19.320732   0.978835 -26.197385 -10.789663  -9.860050  39.665483 -10.355244  -8.795582   0.719787 -16.471252   3.168853 -11.970593   9.598336  12.006070  11.868395   3.124934   8.813587  -1.455288  -5.402032  -0.329524  26.882712  14.590918  -6.878111  -0.505786  -2.134123 -26.861842  16.560109 -41.159268 -54.679981  15.755230 -49.582741  16.439026  11.573243   3.858575 -15.989910   1.674749   2.783786  25.780348  29.222242  33.479703  49.616737 -12.419085  34.102437   2.279190  20.824272  -2.822403   0.245910
  1.000000   1.000000   1.000000  54.822443 -38.727076  12.851151 -22.140107  25.029585   2.017461  45.745304   2.497593   7.464444   2.505356 -10.573437  -4.782736   1.340152   2.376759  10.733868 -31.772671 -28.382301   2.719648  44.802865   2.072796 -24.035700   7.596859   1.577029  -1.164800 -10.790543   1.669499  -3.383773   8.884799   1.926501 -10.020326   3.703501  -7.360653  -8.155166  15.535788  -3.262133   0.161052   4.549799  15.090521 -31.520463  13.106879 -44.228632 -61.197292 -12.446749 -42.351622   1.263875  -1.285072   2.249257 -10.822971  -7.147899   3.212144  26.434857  21.955009  22.834121  53.237795  -8.461345  43.075593   0.372203   9.553138  -7.692009   2.757809
  1.000000   1.000000   1.000000 -16.560360 -16.567189 -19.257787 -32.910862  24.504632  -1.039407  41.770108   3.518838   2.193387  -8.430552  -5.932146   4.299051  -7.623187   2.141346  20.394793 -29.504042 -11.726554  -1.947103  29.830951   3.684317 -19.641998  10.231798  -1.623390  22.486161 -11.767596  -8.895177   3.682617   0.475450   4.457442  12.780280  29.844716   2.222672  -0.855811  20.725355  -7.423227 -14.949445  -2.141556  -5.545492 -26.840861  13.177667 -37.564284 -61.778712  -4.835427 -38.839554   3.937704  13.340520   6.174523  -2.629655   0.550835  -2.139233  25.252368  19.023689  40.093088  49.945389  -7.314697  44.334130  -8.394480   9.247625  -1.535115  11.856168
  1.000000   1.000000   1.000000 129.121463 -77.531589 143.709265 -40.402828  21.181255  24.407738  48.418848   7.772733  10.888410   2.108432  15.463434  -5.934446  -0.643844   2.581740  17.468238 -14.243927 -22.885284   2.498383  45.399427   3.293019 -18.669895   0.812733   1.048146  12.558245   1.340448  -0.427649   4.719188  12.124935  14.172670   0.906096  31.715793  12.061823 -14.315325  17.203292   5.299382   5.028451  10.362057   5.313875 -14.404122  20.237619 -37.393570 -56.209905   4.006952 -40.547691   0.863701  10.320984   7.677846 -13.876967  -5.521970  -5.807200  31.806786  29.150510  33.186451  49.819387  -8.792178  45.128148   3.797753   4.455104  -0.108972  -2.628950
